<mxfile host="app.diagrams.net" agent="Mozilla/5.0 (Windows NT 10.0; Win64; x64) AppleWebKit/537.36 (KHTML, like Gecko) Chrome/140.0.0.0 Safari/537.36" version="28.2.3">
  <diagram name="Page-1" id="Nun1znY9EgRlvbrDJNu2">
    <mxGraphModel dx="786" dy="1576" grid="1" gridSize="10" guides="1" tooltips="1" connect="1" arrows="1" fold="1" page="1" pageScale="1" pageWidth="827" pageHeight="1169" math="0" shadow="0">
      <root>
        <mxCell id="0" />
        <mxCell id="1" parent="0" />
        <mxCell id="n3tXjVttbE0JahER_YOZ-18" style="edgeStyle=orthogonalEdgeStyle;rounded=0;orthogonalLoop=1;jettySize=auto;html=1;exitX=0.5;exitY=1;exitDx=0;exitDy=0;" edge="1" parent="1" source="n3tXjVttbE0JahER_YOZ-2" target="n3tXjVttbE0JahER_YOZ-4">
          <mxGeometry relative="1" as="geometry" />
        </mxCell>
        <mxCell id="n3tXjVttbE0JahER_YOZ-2" value="plan" style="rounded=0;whiteSpace=wrap;html=1;" vertex="1" parent="1">
          <mxGeometry x="294" y="-50" width="120" height="60" as="geometry" />
        </mxCell>
        <mxCell id="n3tXjVttbE0JahER_YOZ-20" style="edgeStyle=orthogonalEdgeStyle;rounded=0;orthogonalLoop=1;jettySize=auto;html=1;exitX=0.5;exitY=1;exitDx=0;exitDy=0;entryX=0.5;entryY=0;entryDx=0;entryDy=0;" edge="1" parent="1" source="n3tXjVttbE0JahER_YOZ-4" target="n3tXjVttbE0JahER_YOZ-5">
          <mxGeometry relative="1" as="geometry" />
        </mxCell>
        <mxCell id="n3tXjVttbE0JahER_YOZ-4" value="develop" style="rhombus;whiteSpace=wrap;html=1;" vertex="1" parent="1">
          <mxGeometry x="306" y="30" width="96" height="80" as="geometry" />
        </mxCell>
        <mxCell id="n3tXjVttbE0JahER_YOZ-19" style="edgeStyle=orthogonalEdgeStyle;rounded=0;orthogonalLoop=1;jettySize=auto;html=1;exitX=0.5;exitY=1;exitDx=0;exitDy=0;" edge="1" parent="1" source="n3tXjVttbE0JahER_YOZ-5" target="n3tXjVttbE0JahER_YOZ-7">
          <mxGeometry relative="1" as="geometry" />
        </mxCell>
        <mxCell id="n3tXjVttbE0JahER_YOZ-5" value="build" style="shape=trapezoid;perimeter=trapezoidPerimeter;whiteSpace=wrap;html=1;fixedSize=1;" vertex="1" parent="1">
          <mxGeometry x="294" y="140" width="120" height="60" as="geometry" />
        </mxCell>
        <mxCell id="n3tXjVttbE0JahER_YOZ-21" style="edgeStyle=orthogonalEdgeStyle;rounded=0;orthogonalLoop=1;jettySize=auto;html=1;exitX=0.5;exitY=1;exitDx=0;exitDy=0;entryX=0.5;entryY=0;entryDx=0;entryDy=0;" edge="1" parent="1" source="n3tXjVttbE0JahER_YOZ-7" target="n3tXjVttbE0JahER_YOZ-9">
          <mxGeometry relative="1" as="geometry" />
        </mxCell>
        <mxCell id="n3tXjVttbE0JahER_YOZ-7" value="test" style="ellipse;whiteSpace=wrap;html=1;aspect=fixed;" vertex="1" parent="1">
          <mxGeometry x="314" y="230" width="80" height="80" as="geometry" />
        </mxCell>
        <mxCell id="n3tXjVttbE0JahER_YOZ-22" style="edgeStyle=orthogonalEdgeStyle;rounded=0;orthogonalLoop=1;jettySize=auto;html=1;exitX=0.5;exitY=1;exitDx=0;exitDy=0;entryX=0.5;entryY=0;entryDx=0;entryDy=0;" edge="1" parent="1" source="n3tXjVttbE0JahER_YOZ-9" target="n3tXjVttbE0JahER_YOZ-11">
          <mxGeometry relative="1" as="geometry" />
        </mxCell>
        <mxCell id="n3tXjVttbE0JahER_YOZ-9" value="release" style="shape=parallelogram;perimeter=parallelogramPerimeter;whiteSpace=wrap;html=1;fixedSize=1;" vertex="1" parent="1">
          <mxGeometry x="299" y="330" width="120" height="60" as="geometry" />
        </mxCell>
        <mxCell id="n3tXjVttbE0JahER_YOZ-11" value="deploy" style="shape=hexagon;perimeter=hexagonPerimeter2;whiteSpace=wrap;html=1;fixedSize=1;" vertex="1" parent="1">
          <mxGeometry x="299" y="420" width="120" height="70" as="geometry" />
        </mxCell>
        <mxCell id="n3tXjVttbE0JahER_YOZ-17" value="monitor" style="rounded=1;whiteSpace=wrap;html=1;" vertex="1" parent="1">
          <mxGeometry x="306" y="620" width="120" height="60" as="geometry" />
        </mxCell>
        <mxCell id="n3tXjVttbE0JahER_YOZ-23" style="edgeStyle=orthogonalEdgeStyle;rounded=0;orthogonalLoop=1;jettySize=auto;html=1;exitX=0.5;exitY=1;exitDx=0;exitDy=0;entryX=0.393;entryY=0.004;entryDx=0;entryDy=0;entryPerimeter=0;" edge="1" parent="1" source="n3tXjVttbE0JahER_YOZ-11">
          <mxGeometry relative="1" as="geometry">
            <mxPoint x="361.6579999999999" y="520.1199999999999" as="targetPoint" />
          </mxGeometry>
        </mxCell>
        <mxCell id="n3tXjVttbE0JahER_YOZ-25" value="" style="edgeStyle=orthogonalEdgeStyle;rounded=0;orthogonalLoop=1;jettySize=auto;html=1;" edge="1" parent="1" source="n3tXjVttbE0JahER_YOZ-24" target="n3tXjVttbE0JahER_YOZ-17">
          <mxGeometry relative="1" as="geometry" />
        </mxCell>
        <mxCell id="n3tXjVttbE0JahER_YOZ-24" value="operator-person/&lt;div&gt;actor&lt;/div&gt;" style="ellipse;whiteSpace=wrap;html=1;" vertex="1" parent="1">
          <mxGeometry x="306" y="520" width="120" height="70" as="geometry" />
        </mxCell>
      </root>
    </mxGraphModel>
  </diagram>
</mxfile>
